<svg id="instagram-logo" xmlns="http://www.w3.org/2000/svg" width="17.729" height="17.729" viewBox="0 0 17.729 17.729">
  <path id="Path_22" data-name="Path 22" d="M12.836,0H4.892A4.9,4.9,0,0,0,0,4.893v7.944a4.9,4.9,0,0,0,4.892,4.893h7.944a4.9,4.9,0,0,0,4.893-4.893V4.893A4.9,4.9,0,0,0,12.836,0Zm3.32,12.836a3.323,3.323,0,0,1-3.32,3.32H4.892a3.323,3.323,0,0,1-3.319-3.32V4.893a3.323,3.323,0,0,1,3.319-3.32h7.944a3.323,3.323,0,0,1,3.32,3.32v7.944Z" fill="#29292b"/>
  <path id="Path_23" data-name="Path 23" d="M45.536,40.97A4.568,4.568,0,1,0,50.1,45.538,4.573,4.573,0,0,0,45.536,40.97Zm0,7.563a3,3,0,1,1,3-3A3,3,0,0,1,45.536,48.533Z" transform="translate(-36.672 -36.674)" fill="#29292b"/>
  <path id="Path_24" data-name="Path 24" d="M120.075,28.251a1.153,1.153,0,1,0,.816.338A1.158,1.158,0,0,0,120.075,28.251Z" transform="translate(-106.45 -25.288)" fill="#29292b"/>
</svg>
