<svg xmlns="http://www.w3.org/2000/svg" width="30.339" height="43.442" viewBox="0 0 30.339 43.442">
  <g id="noun_scroll_down_1216074" data-name="noun_scroll down_1216074" transform="translate(-14.641 -0.761)">
    <g id="Group_20" data-name="Group 20" transform="translate(14.641 0.761)">
      <path id="Path_179" data-name="Path 179" d="M39.036,71.89a1.209,1.209,0,0,0,.8.3h0a1.165,1.165,0,0,0,.235-.025c.023,0,.046-.012.069-.018A1.413,1.413,0,0,0,40.3,72.1c.027-.011.053-.025.08-.038a1.192,1.192,0,0,0,.134-.078c.026-.017.051-.035.076-.055s.035-.023.051-.037l4.474-3.916a1.221,1.221,0,0,0-1.609-1.838l-3.671,3.213-3.673-3.213a1.221,1.221,0,1,0-1.607,1.838Z" transform="translate(-24.667 -34.218)" fill="rgba(42,46,67,0.6)"/>
      <path id="Path_180" data-name="Path 180" d="M39.036,57.049a1.21,1.21,0,0,0,.8.3h0a1.238,1.238,0,0,0,.235-.025c.023,0,.045-.012.068-.018a1.259,1.259,0,0,0,.16-.052c.027-.011.053-.025.08-.038a1.354,1.354,0,0,0,.134-.077c.026-.018.051-.036.077-.056s.034-.023.051-.037l4.474-3.916A1.221,1.221,0,1,0,43.509,51.3l-3.671,3.212L36.166,51.3a1.22,1.22,0,1,0-1.607,1.837Z" transform="translate(-24.667 -26.588)" fill="rgba(42,46,67,0.6)"/>
      <path id="Path_181" data-name="Path 181" d="M25.779,44.2h8.063A11.15,11.15,0,0,0,44.98,33.066V11.9A11.15,11.15,0,0,0,33.842.761H25.779A11.15,11.15,0,0,0,14.641,11.9V33.066A11.151,11.151,0,0,0,25.779,44.2ZM17.083,11.9a8.7,8.7,0,0,1,8.7-8.695h8.063a8.7,8.7,0,0,1,8.7,8.695V33.066a8.7,8.7,0,0,1-8.7,8.695H25.779a8.7,8.7,0,0,1-8.7-8.695V11.9Z" transform="translate(-14.641 -0.761)" fill="rgba(42,46,67,0.6)"/>
      <path id="Path_182" data-name="Path 182" d="M41.2,26.387a4.409,4.409,0,0,0,4.4-4.405V17.053a4.4,4.4,0,1,0-8.809,0v4.929A4.409,4.409,0,0,0,41.2,26.387Zm-1.963-9.334a1.963,1.963,0,1,1,3.926,0v4.929a1.963,1.963,0,1,1-3.926,0Z" transform="translate(-26.034 -6.873)" fill="rgba(42,46,67,0.6)"/>
    </g>
  </g>
</svg>
