<svg id="twitter-logo" xmlns="http://www.w3.org/2000/svg" width="22.443" height="17.73" viewBox="0 0 22.443 17.73">
  <path id="Twitter__x28_alt_x29_" d="M19.9,74.788a2.713,2.713,0,0,0,2.445-1.668,3.557,3.557,0,0,1-2.646.337c-.038-.21-.081-.41-.123-.59-.594-2.5-2.628-4.516-4.758-4.273.172-.08.347-.154.522-.221.235-.1,1.611-.353,1.394-.91-.183-.49-1.864.37-2.18.483.418-.18,1.109-.49,1.183-1.041a3.177,3.177,0,0,0-1.754.953,1.466,1.466,0,0,0,.337-.764c-1.708,1.251-2.705,3.773-3.512,6.22a8.677,8.677,0,0,0-1.7-1.567,41.7,41.7,0,0,0-5.758-2.906,3.562,3.562,0,0,0,1.92,3.236,4.13,4.13,0,0,0-1.382.19A3.017,3.017,0,0,0,6.4,74.83a1.931,1.931,0,0,0-1.538.7,2.544,2.544,0,0,0,2.763,1.553c-1.722.851-.7,2.428.7,2.193A5.424,5.424,0,0,1,0,79.527c5.651,8.83,17.935,5.222,19.765-3.283a3.192,3.192,0,0,0,2.678-1.16A4.809,4.809,0,0,1,19.9,74.788Z" transform="translate(0 -66.906)" fill="#29292b"/>
</svg>
