<svg id="youtube-logo" xmlns="http://www.w3.org/2000/svg" width="14.775" height="17.73" viewBox="0 0 14.775 17.73">
  <path id="YouTube" d="M20,12.969h-.973l0-.565a.459.459,0,0,1,.458-.457h.062a.459.459,0,0,1,.459.457Zm-3.65-1.211a.416.416,0,0,0-.449.369v2.749a.458.458,0,0,0,.9,0V12.127A.416.416,0,0,0,16.348,11.758Zm5.927-1.538v5.229a2.359,2.359,0,0,1-2.417,2.281H9.917A2.359,2.359,0,0,1,7.5,15.449V10.22A2.359,2.359,0,0,1,9.917,7.939h9.94A2.359,2.359,0,0,1,22.275,10.22Zm-11.695,5.8V10.509h1.232V9.693l-3.285,0v.8l1.025,0v5.524Zm3.694-4.688H13.247v2.941a5.213,5.213,0,0,1,0,.713c-.084.228-.459.47-.605.025a5.853,5.853,0,0,1,0-.718l0-2.962H11.611l0,2.915c0,.447-.01.78,0,.932.025.267.016.579.264.757a1.241,1.241,0,0,0,1.57-.526l0,.607h.825V11.329ZM17.561,14.7l0-2.448c0-.933-.7-1.492-1.646-.737l0-1.82-1.026,0,0,6.282.844-.012.077-.391C16.884,16.562,17.562,15.884,17.561,14.7Zm3.215-.324-.77,0c0,.031,0,.066,0,.1v.43a.421.421,0,0,1-.421.417h-.151a.421.421,0,0,1-.421-.417V13.781h1.764v-.664a10.474,10.474,0,0,0-.053-1.248c-.126-.877-1.358-1.017-1.98-.568a1.16,1.16,0,0,0-.431.58,3.266,3.266,0,0,0-.131,1.035v1.46C18.18,16.8,21.128,16.46,20.776,14.373ZM16.825,6.448a.7.7,0,0,0,.247.312.716.716,0,0,0,.42.117.654.654,0,0,0,.394-.123.944.944,0,0,0,.288-.369l-.02.4H19.3V1.919h-.9v3.79a.375.375,0,0,1-.751,0V1.919h-.941V5.2c0,.418.008.7.02.839A1.412,1.412,0,0,0,16.825,6.448ZM13.354,3.7a4.053,4.053,0,0,1,.116-1.1,1.172,1.172,0,0,1,1.2-.872,1.42,1.42,0,0,1,.681.154,1.135,1.135,0,0,1,.439.4A1.576,1.576,0,0,1,16,2.791a4.044,4.044,0,0,1,.057.8V4.82a6.667,6.667,0,0,1-.053,1,1.577,1.577,0,0,1-.226.592,1.07,1.07,0,0,1-.441.405,1.406,1.406,0,0,1-.621.131,1.726,1.726,0,0,1-.662-.111.909.909,0,0,1-.422-.338,1.5,1.5,0,0,1-.215-.546,5.262,5.262,0,0,1-.064-.96V3.7Zm.9,1.935a.457.457,0,1,0,.91,0V3.04a.457.457,0,1,0-.91,0ZM11.082,6.941h1.08V3.206L13.44.007H12.258L11.58,2.383,10.891,0H9.722L11.08,3.208Z" transform="translate(-7.5)" fill="#29292b"/>
</svg>
