<svg width="6" height="7" viewBox="0 0 6 7" fill="none" xmlns="http://www.w3.org/2000/svg">
<path opacity="0.421879" d="M0.0649892 6.076L0.0673389 5.14549C0.545664 5.06507 0.880781 4.8945 1.07269 4.63379C1.2646 4.37308 1.36139 3.90806 1.36308 3.23875L0.143881 3.23567L0.149755 0.909397L2.49254 0.915313L2.48759 2.87428C2.48504 3.88641 2.29978 4.66954 1.93182 5.22366C1.56382 5.7941 0.941541 6.07821 0.0649892 6.076ZM3.50745 6.08469L3.5098 5.15418C3.98812 5.07376 4.32324 4.9032 4.51515 4.64248C4.70705 4.38177 4.80385 3.91676 4.80554 3.24744L3.58634 3.24436L3.59221 0.918089L5.935 0.924005L5.93005 2.88297C5.9275 3.89511 5.74224 4.67823 5.37428 5.23235C5.00628 5.80279 4.384 6.0869 3.50745 6.08469Z" fill="#FEFCFC" fill-opacity="0.92"/>
</svg>
